<svg width="304" height="73" viewBox="0 0 304 73" fill="none" xmlns="http://www.w3.org/2000/svg">
<path d="M41.19 14.24C40.8167 14.94 40.28 15.6167 39.58 16.27C38.88 16.8767 38.2033 17.2967 37.55 17.53C36.8967 17.7167 36.4767 17.6467 36.29 17.32C34.7033 14.2867 32.51 11.7667 29.71 9.76C26.91 7.75333 23.9233 6.58667 20.75 6.26C18.79 6.07333 17.0633 6.21333 15.57 6.68C14.1233 7.1 13.0967 7.61333 12.49 8.22C11.93 8.82666 11.51 9.92333 11.23 11.51C10.95 13.05 11.2067 14.7533 12 16.62C12.7933 18.4867 14.0533 20.05 15.78 21.31C17.5067 22.5233 19.63 23.5733 22.15 24.46C22.29 24.5067 23.2 24.8333 24.88 25.44C26.56 26 27.8433 26.4667 28.73 26.84C34.75 29.4067 38.1333 33.21 38.88 38.25C39.3933 41.61 38.5767 44.9 36.43 48.12C35.2167 49.9867 33.7233 51.5967 31.95 52.95C27.5167 56.31 22.6867 57.5467 17.46 56.66C13.96 56.0533 10.7633 54.63 7.87 52.39C4.97667 50.1033 2.73667 47.3267 1.15 44.06C0.963333 43.6867 1.05667 43.15 1.43 42.45C1.85 41.75 2.41 41.0967 3.11 40.49C3.81 39.8367 4.46333 39.4167 5.07 39.23C5.72333 38.9967 6.14333 39.0667 6.33 39.44C7.87 42.52 9.99333 45.1333 12.7 47.28C15.4533 49.4267 18.3 50.7567 21.24 51.27C24.2267 51.7833 26.6767 51.7133 28.59 51.06C30.55 50.36 31.8333 49.5433 32.44 48.61C33.56 46.8833 33.9333 44.7833 33.56 42.31C32.9067 37.8767 29.78 34.4467 24.18 32.02C23.34 31.6467 22.08 31.2033 20.4 30.69C16.06 29.1967 12.9333 27.75 11.02 26.35C9.10667 24.95 7.68333 23.2 6.75 21.1C5.81667 18.9533 5.58333 16.5967 6.05 14.03C6.56333 11.4633 7.96333 8.96666 10.25 6.54C14.4033 2.24666 19.2567 0.379998 24.81 0.939999C28.31 1.31333 31.53 2.57333 34.47 4.72C37.4567 6.82 39.79 9.45666 41.47 12.63C41.6567 12.9567 41.5633 13.4933 41.19 14.24ZM183.87 49.87C179.344 54.35 174.28 56.6133 168.68 56.66C165.414 56.66 162.38 55.8433 159.58 54.21C156.78 52.5767 154.61 50.29 153.07 47.35C151.344 44.0833 150.48 40.3267 150.48 36.08C150.48 33.3267 150.854 30.34 151.6 27.12C153.654 18.0667 157.55 11.1133 163.29 6.26C167.444 2.76 171.737 1.01 176.17 1.01C179.297 1.01 181.957 1.80333 184.15 3.39C188.164 6.28333 190.17 10.04 190.17 14.66C190.17 15.08 190.147 15.5467 190.1 16.06C190.054 16.5733 189.75 17.2033 189.19 17.95C188.63 18.6967 188.047 19.28 187.44 19.7C186.834 20.0733 186.32 20.3067 185.9 20.4C185.527 20.4933 185.224 20.47 184.99 20.33C184.804 20.19 184.734 19.9567 184.78 19.63C184.827 19.2567 184.85 18.9067 184.85 18.58C184.85 16.8533 184.43 15.1033 183.59 13.33C182.797 11.51 181.514 9.97 179.74 8.71C177.5 7.12333 175.027 6.33 172.32 6.33C169.147 6.33 166.464 7.26333 164.27 9.13C163.29 9.97 162.287 11.1833 161.26 12.77C159.347 15.8033 157.947 19.1633 157.06 22.85C156.22 26.5367 155.8 29.6633 155.8 32.23C155.8 36.15 156.57 39.5567 158.11 42.45C161.237 48.3767 166.044 51.34 172.53 51.34C175.704 51.34 178.41 50.5233 180.65 48.89C182.237 47.77 183.427 46.16 184.22 44.06C184.267 43.92 184.36 43.78 184.5 43.64L185.48 33.07L168.89 32.86C168.19 32.86 168.004 32.4167 168.33 31.53C168.704 30.3633 169.404 29.4067 170.43 28.66C171.504 27.9133 172.297 27.54 172.81 27.54L190.17 27.75C190.684 27.75 190.917 28.03 190.87 28.59L188.63 52.18C188.584 52.6933 188.28 53.3233 187.72 54.07C187.16 54.8633 186.577 55.4467 185.97 55.82C185.364 56.24 184.874 56.4967 184.5 56.59C183.66 56.8233 183.264 56.5667 183.31 55.82L183.87 49.87Z" fill="#466FC0"/>
<path d="M51.9137 49.2148C52.0048 48.8503 52.1415 48.2578 52.3238 47.4375C52.5061 46.5716 52.6884 45.6146 52.8707 44.5664C53.0986 43.5182 53.3036 42.4017 53.4859 41.2168C53.7138 40.0319 53.9189 38.9154 54.1012 37.8672C54.329 36.819 54.5113 35.862 54.648 34.9961C54.7848 34.1302 54.8759 33.4922 54.9215 33.082C54.9671 32.8997 54.9671 32.6263 54.9215 32.2617C54.8759 31.8971 54.8303 31.487 54.7848 31.0312C54.7392 30.5755 54.6936 30.1654 54.648 29.8008C54.6025 29.4362 54.5797 29.1628 54.5797 28.9805C54.443 28.9805 54.2151 28.9349 53.8961 28.8438C53.5771 28.7526 53.2353 28.6842 52.8707 28.6387C52.5517 28.5475 52.2555 28.4792 51.982 28.4336C51.7086 28.3424 51.5035 28.2969 51.3668 28.2969C50.273 28.707 49.4527 29.2311 48.9059 29.8691C48.4046 30.4616 47.926 31.054 47.4703 31.6465C47.0602 32.2389 46.5589 32.763 45.9664 33.2188C45.374 33.6289 44.5081 33.834 43.3688 33.834C42.9586 33.834 42.6624 33.6745 42.4801 33.3555C42.2978 33.0365 42.2066 32.6719 42.2066 32.2617V31.9883C43.2092 30.849 44.1663 29.8691 45.0777 29.0488C45.9436 28.2285 46.8779 27.5449 47.8805 26.998C48.8831 26.4056 49.9768 25.9727 51.1617 25.6992C52.3466 25.4258 53.7138 25.2891 55.2633 25.2891C55.9469 25.2891 56.4482 25.4258 56.7672 25.6992C57.1318 25.9271 57.4052 26.2461 57.5875 26.6562C57.7698 27.0208 57.8609 27.4538 57.8609 27.9551C57.9065 28.4564 57.9293 29.0033 57.9293 29.5957C57.9293 30.8262 57.7926 32.0566 57.5191 33.2871C57.2913 34.472 57.0178 35.6797 56.6988 36.9102C56.4254 38.0951 56.152 39.3027 55.8785 40.5332C55.6051 41.7181 55.4684 42.9486 55.4684 44.2246V44.498C55.6051 44.1335 55.9013 43.541 56.357 42.7207C56.8128 41.8548 57.2913 40.9434 57.7926 39.9863C58.2939 39.0293 58.7724 38.1406 59.2281 37.3203C59.7294 36.4544 60.0712 35.862 60.2535 35.543C60.2991 35.4974 60.4586 35.3151 60.732 34.9961C61.0055 34.6315 61.3245 34.2214 61.6891 33.7656C62.0992 33.3099 62.4866 32.877 62.8512 32.4668C63.2613 32.0111 63.6031 31.6465 63.8766 31.373C64.15 31.0085 64.469 30.6211 64.8336 30.2109C65.2438 29.8008 65.6539 29.4134 66.0641 29.0488C66.5198 28.6842 66.9755 28.388 67.4313 28.1602C67.9326 27.8867 68.4339 27.75 68.9352 27.75C69.3453 27.75 69.6415 27.9095 69.8238 28.2285C70.0517 28.5475 70.2112 28.9349 70.3023 29.3906C70.3935 29.8464 70.4391 30.3249 70.4391 30.8262C70.4391 31.2819 70.4391 31.6693 70.4391 31.9883C70.4391 33.3555 70.2796 34.7227 69.9605 36.0898C69.6415 37.457 69.2997 38.8242 68.9352 40.1914C68.5706 41.513 68.206 42.8574 67.8414 44.2246C67.5224 45.5918 67.3629 46.959 67.3629 48.3262C67.3629 48.9186 67.454 49.4199 67.6363 49.8301C67.8186 50.2402 68.2288 50.4453 68.8668 50.4453C69.6871 50.4453 70.4391 50.2174 71.1227 49.7617C71.8063 49.306 72.4443 48.8275 73.0367 48.3262C73.6747 47.7793 74.29 47.278 74.8824 46.8223C75.5204 46.3665 76.2268 46.1387 77.0016 46.1387V47.4375C77.0016 47.4831 76.8876 47.6198 76.6598 47.8477C76.4319 48.0755 76.1585 48.349 75.8395 48.668C75.5204 48.987 75.1786 49.306 74.8141 49.625C74.4951 49.944 74.2216 50.2174 73.9938 50.4453C73.6292 50.7643 73.219 51.1061 72.7633 51.4707C72.3076 51.8353 71.829 52.1771 71.3277 52.4961C70.872 52.7695 70.3707 53.0202 69.8238 53.248C69.277 53.4303 68.7529 53.5215 68.2516 53.5215C67.568 53.5215 66.9983 53.3392 66.5426 52.9746C66.1324 52.5645 65.8134 52.0859 65.5855 51.5391C65.3577 50.9466 65.1982 50.3314 65.107 49.6934C65.0159 49.0553 64.9703 48.4857 64.9703 47.9844C64.9703 46.6172 65.0842 45.2728 65.3121 43.9512C65.5855 42.584 65.859 41.2624 66.1324 39.9863C66.4059 38.6647 66.6565 37.3431 66.8844 36.0215C67.1122 34.6999 67.2262 33.3555 67.2262 31.9883H66.816C66.7704 31.9883 66.6109 32.125 66.3375 32.3984C66.0641 32.6719 65.7223 32.9909 65.3121 33.3555C64.9475 33.7201 64.5829 34.1074 64.2184 34.5176C63.8538 34.9277 63.5348 35.2695 63.2613 35.543C63.0335 35.8164 62.7828 36.1582 62.5094 36.5684C62.2359 36.9329 61.9625 37.3431 61.6891 37.7988C61.4156 38.2546 61.1422 38.7103 60.8688 39.166C60.6409 39.5762 60.4358 39.9635 60.2535 40.3281C60.1168 40.6471 59.8889 41.1257 59.5699 41.7637C59.2509 42.4017 58.8863 43.1309 58.4762 43.9512C58.1116 44.7715 57.7014 45.6374 57.2457 46.5488C56.8355 47.4603 56.4254 48.3262 56.0152 49.1465C55.6507 49.9668 55.3089 50.696 54.9898 51.334C54.6708 51.972 54.443 52.4505 54.3063 52.7695C54.2607 52.9518 54.0784 53.2025 53.7594 53.5215C53.4404 53.7949 53.2353 53.9544 53.1441 54C53.053 54.0456 53.0074 54.0684 53.0074 54.0684H52.8023H52.6656C52.6201 54.0684 52.5745 54.0456 52.5289 54C52.4378 53.9544 52.301 53.8633 52.1188 53.7266C51.982 53.5898 51.9137 53.4987 51.9137 53.4531V49.2148ZM95.4367 45.6602C94.7531 46.4805 93.9556 47.3464 93.0441 48.2578C92.1783 49.1693 91.2212 50.0124 90.173 50.7871C89.1704 51.5618 88.0995 52.2227 86.9602 52.7695C85.8664 53.2708 84.7271 53.5215 83.5422 53.5215C81.1268 53.5215 79.9191 52.3594 79.9191 50.0352C79.9191 49.0781 80.3065 47.8249 81.0813 46.2754C81.9016 44.6803 82.9497 43.0169 84.2258 41.2852C85.5018 39.5534 86.9146 37.89 88.4641 36.2949C90.0135 34.6543 91.563 33.3099 93.1125 32.2617C94.662 31.168 96.0747 30.4844 97.3508 30.2109C98.6724 29.9375 99.7434 30.3249 100.564 31.373C100.564 32.6035 100.473 33.834 100.29 35.0645C100.108 36.2949 99.9257 37.5254 99.7434 38.7559C99.5611 39.9408 99.3788 41.1257 99.1965 42.3105C99.0142 43.4954 98.923 44.7031 98.923 45.9336C98.923 46.207 98.9458 46.64 98.9914 47.2324C99.0826 47.7793 99.1965 48.349 99.3332 48.9414C99.5155 49.4883 99.7434 49.9896 100.017 50.4453C100.29 50.8555 100.655 51.0605 101.111 51.0605C102.204 51.0605 103.093 50.9238 103.777 50.6504C104.506 50.377 105.121 50.0579 105.622 49.6934C106.169 49.2832 106.625 48.8275 106.989 48.3262C107.4 47.8249 107.81 47.3236 108.22 46.8223C108.676 46.321 109.177 45.8424 109.724 45.3867C110.271 44.931 110.977 44.5664 111.843 44.293C111.843 44.293 111.843 44.3613 111.843 44.498C111.843 44.6348 111.843 44.7487 111.843 44.8398C111.843 45.9792 111.501 47.1185 110.818 48.2578C110.134 49.3516 109.268 50.3314 108.22 51.1973C107.172 52.0632 105.987 52.7695 104.665 53.3164C103.389 53.8177 102.136 54.0684 100.905 54.0684C99.8573 54.0684 99.0142 53.7721 98.3762 53.1797C97.7382 52.5872 97.2141 51.8809 96.8039 51.0605C96.4393 50.2402 96.1659 49.3516 95.9836 48.3945C95.8013 47.3919 95.619 46.4805 95.4367 45.6602ZM96.6672 36.7051C97.1229 35.2012 97.2824 34.1758 97.1457 33.6289C97.0546 33.082 96.7355 32.877 96.1887 33.0137C95.6418 33.1048 94.9354 33.4922 94.0695 34.1758C93.2036 34.8138 92.2694 35.6113 91.2668 36.5684C90.2642 37.4798 89.2616 38.5052 88.259 39.6445C87.2564 40.7839 86.3221 41.8776 85.4563 42.9258C84.5904 43.9284 83.884 44.8398 83.3371 45.6602C82.7902 46.4805 82.4484 47.0729 82.3117 47.4375C82.0383 48.4857 81.9927 49.2832 82.175 49.8301C82.4029 50.377 82.7219 50.7643 83.132 50.9922C83.5878 51.1745 84.0663 51.1973 84.5676 51.0605C85.1145 50.9238 85.5702 50.7188 85.9348 50.4453C86.7095 49.7617 87.6893 48.8503 88.8742 47.7109C90.0591 46.526 91.1984 45.2728 92.2922 43.9512C93.4315 42.6296 94.4113 41.3307 95.2316 40.0547C96.052 38.7331 96.5305 37.6165 96.6672 36.7051ZM113.804 69.791C114.624 67.2845 115.307 65.097 115.854 63.2285C116.401 61.4056 116.834 59.6966 117.153 58.1016C117.472 56.5521 117.746 55.0254 117.973 53.5215C118.201 52.0176 118.429 50.3542 118.657 48.5312C118.93 46.6628 119.249 44.5436 119.614 42.1738C119.979 39.804 120.48 36.9785 121.118 33.6973C121.118 32.6947 121.05 31.8971 120.913 31.3047C120.822 30.7122 120.594 30.3477 120.229 30.2109C119.91 30.0286 119.432 30.0514 118.794 30.2793C118.201 30.4616 117.427 30.8262 116.47 31.373H116.128C115.763 31.373 115.421 31.3047 115.102 31.168C114.783 30.9857 114.624 30.6667 114.624 30.2109C114.624 29.8919 114.647 29.6641 114.692 29.5273C114.738 29.3906 114.92 29.2083 115.239 28.9805C115.923 28.5247 116.743 28.0007 117.7 27.4082C118.657 26.8158 119.568 26.4284 120.434 26.2461C121.346 26.0182 122.121 26.1322 122.759 26.5879C123.442 27.0436 123.875 28.0234 124.057 29.5273C124.559 28.9349 125.083 28.3197 125.63 27.6816C126.222 26.998 126.837 26.4056 127.475 25.9043C128.113 25.3574 128.797 24.9245 129.526 24.6055C130.301 24.2865 131.144 24.127 132.055 24.127C133.468 24.127 134.63 24.5827 135.542 25.4941C136.453 26.4056 137.16 27.5221 137.661 28.8438C138.162 30.1654 138.481 31.5781 138.618 33.082C138.8 34.5404 138.891 35.8164 138.891 36.9102C138.891 39.5534 138.436 41.9232 137.524 44.0195C136.613 46.0703 135.36 47.8249 133.764 49.2832C132.215 50.7415 130.346 51.8809 128.159 52.7012C125.971 53.4759 123.602 53.9089 121.05 54C120.685 55.1849 120.434 56.0508 120.298 56.5977C120.207 57.1445 120.138 57.6003 120.093 57.9648C120.047 58.375 120.001 58.8079 119.956 59.2637C119.91 59.7194 119.751 60.403 119.477 61.3145C119.249 62.2715 118.862 63.5931 118.315 65.2793C117.768 66.9655 116.994 69.2214 115.991 72.0469C115.444 72.0469 114.943 71.7962 114.487 71.2949C114.031 70.7936 113.804 70.2923 113.804 69.791ZM121.596 50.4453C121.551 50.7188 121.596 50.9466 121.733 51.1289C121.87 51.2656 122.029 51.3796 122.212 51.4707C122.394 51.5618 122.599 51.6302 122.827 51.6758C123.055 51.6758 123.237 51.6758 123.374 51.6758C124.559 51.6758 125.812 51.4023 127.134 50.8555C128.501 50.3086 129.754 49.6022 130.893 48.7363C132.078 47.8704 133.081 46.8678 133.901 45.7285C134.721 44.5892 135.2 43.3815 135.337 42.1055C136.02 40.4193 136.385 38.7331 136.43 37.0469C136.522 35.3151 136.385 33.7428 136.02 32.3301C135.701 30.9173 135.2 29.7324 134.516 28.7754C133.833 27.8184 133.012 27.2487 132.055 27.0664C131.144 26.8841 130.141 27.1576 129.048 27.8867C127.999 28.6159 126.929 29.9831 125.835 31.9883L121.596 50.4453ZM197.568 51.6758C198.024 49.8529 198.343 48.2122 198.525 46.7539C198.753 45.25 198.89 43.7917 198.936 42.3789C199.027 40.9661 199.049 39.485 199.004 37.9355C199.004 36.3861 199.004 34.6315 199.004 32.6719C198.275 32.6719 197.728 32.7174 197.363 32.8086C197.044 32.8997 196.816 33.0137 196.68 33.1504C196.543 33.2415 196.452 33.3555 196.406 33.4922C196.361 33.6289 196.27 33.7656 196.133 33.9023C196.042 33.9935 195.837 34.0846 195.518 34.1758C195.199 34.2669 194.697 34.3125 194.014 34.3125C193.604 34.3125 193.307 34.153 193.125 33.834C192.943 33.515 192.852 33.1504 192.852 32.7402C192.852 32.3757 193.102 31.9883 193.604 31.5781C194.059 31.168 194.606 30.7578 195.244 30.3477C195.928 29.9375 196.611 29.5957 197.295 29.3223C198.024 29.0488 198.639 28.9121 199.141 28.9121C199.323 28.9121 199.574 29.0033 199.893 29.1855C200.257 29.3223 200.599 29.5273 200.918 29.8008C201.237 30.0286 201.488 30.2793 201.67 30.5527C201.898 30.8262 202.012 31.0996 202.012 31.373V40.875C202.467 40.1914 203.197 39.2572 204.199 38.0723C205.202 36.8874 206.318 35.7253 207.549 34.5859C208.779 33.401 210.033 32.3757 211.309 31.5098C212.585 30.6439 213.724 30.2109 214.727 30.2109C216.094 30.2109 217.051 30.6667 217.598 31.5781C218.145 32.444 218.418 33.5378 218.418 34.8594C217.871 34.8594 217.438 34.7682 217.119 34.5859C216.8 34.4036 216.504 34.1986 216.23 33.9707C216.003 33.7428 215.752 33.5605 215.479 33.4238C215.205 33.2415 214.84 33.1504 214.385 33.1504C212.926 33.4238 211.559 34.153 210.283 35.3379C209.007 36.5228 207.822 37.9128 206.729 39.5078C205.68 41.1029 204.723 42.7891 203.857 44.5664C203.037 46.3438 202.308 47.9616 201.67 49.4199C201.032 50.8783 200.508 52.0632 200.098 52.9746C199.733 53.8861 199.505 54.2507 199.414 54.0684C198.958 54.0684 198.525 53.8633 198.115 53.4531C197.751 52.9974 197.568 52.4733 197.568 51.8809V51.6758ZM241.433 45.6602C240.75 46.4805 239.952 47.3464 239.041 48.2578C238.175 49.1693 237.218 50.0124 236.17 50.7871C235.167 51.5618 234.096 52.2227 232.957 52.7695C231.863 53.2708 230.724 53.5215 229.539 53.5215C227.123 53.5215 225.916 52.3594 225.916 50.0352C225.916 49.0781 226.303 47.8249 227.078 46.2754C227.898 44.6803 228.946 43.0169 230.222 41.2852C231.498 39.5534 232.911 37.89 234.461 36.2949C236.01 34.6543 237.559 33.3099 239.109 32.2617C240.658 31.168 242.071 30.4844 243.347 30.2109C244.669 29.9375 245.74 30.3249 246.56 31.373C246.56 32.6035 246.469 33.834 246.287 35.0645C246.104 36.2949 245.922 37.5254 245.74 38.7559C245.558 39.9408 245.375 41.1257 245.193 42.3105C245.011 43.4954 244.92 44.7031 244.92 45.9336C244.92 46.207 244.942 46.64 244.988 47.2324C245.079 47.7793 245.193 48.349 245.33 48.9414C245.512 49.4883 245.74 49.9896 246.013 50.4453C246.287 50.8555 246.651 51.0605 247.107 51.0605C248.201 51.0605 249.089 50.9238 249.773 50.6504C250.502 50.377 251.117 50.0579 251.619 49.6934C252.166 49.2832 252.621 48.8275 252.986 48.3262C253.396 47.8249 253.806 47.3236 254.216 46.8223C254.672 46.321 255.173 45.8424 255.72 45.3867C256.267 44.931 256.974 44.5664 257.839 44.293C257.839 44.293 257.839 44.3613 257.839 44.498C257.839 44.6348 257.839 44.7487 257.839 44.8398C257.839 45.9792 257.498 47.1185 256.814 48.2578C256.13 49.3516 255.265 50.3314 254.216 51.1973C253.168 52.0632 251.983 52.7695 250.662 53.3164C249.386 53.8177 248.132 54.0684 246.902 54.0684C245.854 54.0684 245.011 53.7721 244.373 53.1797C243.735 52.5872 243.211 51.8809 242.8 51.0605C242.436 50.2402 242.162 49.3516 241.98 48.3945C241.798 47.3919 241.615 46.4805 241.433 45.6602ZM242.664 36.7051C243.119 35.2012 243.279 34.1758 243.142 33.6289C243.051 33.082 242.732 32.877 242.185 33.0137C241.638 33.1048 240.932 33.4922 240.066 34.1758C239.2 34.8138 238.266 35.6113 237.263 36.5684C236.261 37.4798 235.258 38.5052 234.255 39.6445C233.253 40.7839 232.319 41.8776 231.453 42.9258C230.587 43.9284 229.88 44.8398 229.334 45.6602C228.787 46.4805 228.445 47.0729 228.308 47.4375C228.035 48.4857 227.989 49.2832 228.171 49.8301C228.399 50.377 228.718 50.7643 229.129 50.9922C229.584 51.1745 230.063 51.1973 230.564 51.0605C231.111 50.9238 231.567 50.7188 231.931 50.4453C232.706 49.7617 233.686 48.8503 234.871 47.7109C236.056 46.526 237.195 45.2728 238.289 43.9512C239.428 42.6296 240.408 41.3307 241.228 40.0547C242.048 38.7331 242.527 37.6165 242.664 36.7051ZM268.071 35.543L267.456 33.082L266.226 33.7656L259.116 40.875C259.071 40.9206 258.911 40.875 258.638 40.7383C258.319 40.556 258.091 40.4193 257.954 40.3281C257.863 40.237 257.749 40.123 257.612 39.9863C257.43 39.804 257.339 39.6901 257.339 39.6445V39.3711C257.339 39.0977 257.544 38.6647 257.954 38.0723C258.319 37.4798 258.82 36.819 259.458 36.0898C260.096 35.3607 260.803 34.6087 261.577 33.834C262.398 33.0137 263.195 32.3073 263.97 31.7148C264.79 31.0768 265.565 30.5527 266.294 30.1426C267.023 29.7324 267.639 29.5273 268.14 29.5273C269.006 29.5273 269.644 29.9375 270.054 30.7578C270.51 31.5326 270.806 32.4668 270.943 33.5605C271.125 34.6087 271.193 35.6797 271.148 36.7734C271.102 37.8216 271.079 38.5964 271.079 39.0977C271.216 38.8698 271.512 38.4824 271.968 37.9355C272.424 37.3431 272.902 36.7279 273.404 36.0898C273.905 35.4062 274.383 34.791 274.839 34.2441C275.295 33.6973 275.614 33.3099 275.796 33.082C275.933 32.9453 276.229 32.6263 276.685 32.125C277.186 31.5781 277.71 31.0312 278.257 30.4844C278.849 29.8919 279.465 29.3906 280.103 28.9805C280.741 28.5247 281.288 28.2969 281.743 28.2969C282.564 28.2969 283.156 28.5475 283.521 29.0488C283.885 29.5046 284.113 30.0742 284.204 30.7578C284.341 31.4414 284.387 32.1706 284.341 32.9453C284.295 33.6745 284.273 34.2897 284.273 34.791C284.273 36.5228 284.159 38.2318 283.931 39.918C283.703 41.6042 283.589 43.3359 283.589 45.1133V45.6602C284.546 44.5664 285.366 43.3587 286.05 42.0371C286.779 40.7155 287.508 39.4167 288.237 38.1406C288.967 36.819 289.741 35.5658 290.562 34.3809C291.428 33.196 292.476 32.1934 293.706 31.373C293.797 31.3275 293.934 31.3047 294.116 31.3047C294.344 31.2591 294.504 31.2363 294.595 31.2363C295.096 31.2363 295.461 31.3958 295.689 31.7148C295.962 31.9883 296.122 32.3529 296.167 32.8086C296.258 33.2188 296.281 33.6517 296.236 34.1074C296.19 34.5632 296.167 34.9505 296.167 35.2695C296.167 37.2292 296.053 39.166 295.825 41.0801C295.598 42.9486 295.484 44.8626 295.484 46.8223C295.484 47.8704 295.711 48.554 296.167 48.873C296.668 49.1921 297.443 49.3516 298.491 49.3516C298.993 49.3516 299.426 49.2832 299.79 49.1465C300.2 48.9642 300.588 48.7819 300.952 48.5996C301.317 48.3717 301.681 48.1895 302.046 48.0527C302.456 47.8704 302.889 47.7793 303.345 47.7793C303.345 48.4629 303.163 49.1009 302.798 49.6934C302.433 50.2402 301.978 50.7188 301.431 51.1289C300.884 51.4935 300.269 51.7897 299.585 52.0176C298.902 52.1999 298.264 52.291 297.671 52.291C297.17 52.291 296.646 52.2227 296.099 52.0859C295.598 51.9492 295.119 51.7441 294.663 51.4707C294.253 51.1517 293.889 50.7643 293.57 50.3086C293.296 49.8529 293.159 49.306 293.159 48.668V35.543C292.658 35.9076 292.088 36.5684 291.45 37.5254C290.858 38.4824 290.22 39.5762 289.536 40.8066C288.898 42.0371 288.237 43.3359 287.554 44.7031C286.916 46.0703 286.278 47.3008 285.64 48.3945C285.002 49.4883 284.387 50.4225 283.794 51.1973C283.202 51.9264 282.655 52.291 282.154 52.291C281.652 52.291 281.288 52.0632 281.06 51.6074C280.832 51.1517 280.672 50.6504 280.581 50.1035C280.536 49.5111 280.513 48.9642 280.513 48.4629C280.513 47.9616 280.513 47.6198 280.513 47.4375C280.513 46.3438 280.581 45.25 280.718 44.1562C280.855 43.0625 281.014 41.9688 281.196 40.875C281.379 39.7357 281.538 38.6191 281.675 37.5254C281.812 36.4316 281.88 35.3379 281.88 34.2441C281.88 34.1074 281.88 33.9023 281.88 33.6289C281.88 33.3555 281.834 33.1048 281.743 32.877C281.698 32.6035 281.607 32.3757 281.47 32.1934C281.333 31.9655 281.151 31.8516 280.923 31.8516C280.877 31.8516 280.832 31.8743 280.786 31.9199C280.786 31.9199 280.764 31.9199 280.718 31.9199C280.718 31.9655 280.672 31.9883 280.581 31.9883C280.536 31.9883 280.445 32.0566 280.308 32.1934C280.171 32.3301 280.08 32.444 280.034 32.5352C279.533 33.1732 278.872 33.9935 278.052 34.9961C277.232 35.9987 276.434 36.9785 275.659 37.9355C274.885 38.8926 274.224 39.7129 273.677 40.3965C273.13 41.0801 272.834 41.4219 272.788 41.4219C272.652 41.6953 272.401 42.3561 272.036 43.4043C271.717 44.4525 271.353 45.5918 270.943 46.8223C270.578 48.0072 270.236 49.1465 269.917 50.2402C269.598 51.2884 269.37 51.9492 269.234 52.2227C269.006 52.9518 268.709 53.4531 268.345 53.7266C267.98 54 267.433 54.1367 266.704 54.1367C266.704 52.5872 266.773 51.0605 266.909 49.5566C267.046 48.0527 267.206 46.5488 267.388 45.0449C267.57 43.4954 267.73 41.9688 267.866 40.4648C268.003 38.9154 268.071 37.3431 268.071 35.748V35.543Z" fill="white"/>
</svg>
